<?xml version="1.0" encoding="UTF-8"?>
<svg id="Ebene_2" data-name="Ebene 2" xmlns="http://www.w3.org/2000/svg" viewBox="0 0 173 173">
  <defs>
    <style>
      .cls-1 {
        fill: #2e3192;
        stroke-width: 3px;
      }

      .cls-1, .cls-2 {
        stroke: #ed1c24;
        stroke-miterlimit: 10;
      }

      .cls-2, .cls-3 {
        fill: #ed1c24;
      }

      .cls-3 {
        font-family: SourceSerifVariable-Roman, 'Source Serif Variable';
        font-size: 118.3px;
        font-variation-settings: 'wght' 389;
      }
    </style>
  </defs>
  <g id="Ebene_1-2" data-name="Ebene 1">
    <circle class="cls-1" cx="86.5" cy="86.5" r="85"/>
    <text class="cls-3" transform="translate(55.46 108.87)"><tspan x="0" y="0">Š</tspan></text>
    <path class="cls-2" d="M77.55,165.67c-11.26,.52-24.26-4.09-34.71-14.24-9.07-8.82-14.91-19.99-19.03-31.86-1.41-4.05-4.37-7.64-4.03-12.29,.07-.93-.61-2.09,.74-2.43,.63-.16,1.65,.13,2.12,.59,10.37,10.22,24.01,11.87,37.4,14.24,19.29,3.42,38.61,3.49,57.71-.64,10.41-2.25,21.08-4.36,30.39-10.17,.93-.58,2.62-1.07,3.35-.63,1.25,.77,1.05,2.58,.61,3.84-2.05,5.97-3.95,11.94-8.24,16.95-3.43,4-5.32,9.14-9.48,12.74-8.85,7.67-16.85,16.09-28.97,19.51-8.1,2.28-16,4.28-27.87,4.4Zm72.36-53.82c-13.02,4.12-23.86,9.05-35.71,10.66-15.54,2.11-12.53,.16-12.69,13.85-.09,8.03,1.73,9.09,9.85,7.67,5.83-1.02,9.09-3.38,8.28-9.75-.32-2.56-.05-5.19-.05-7.78,1.88,2.53,1.38,5.11,1.31,7.65-.23,8.02,.45,8.41,8.28,5.79,2.72-.91,3.91-2.22,3.8-5.1-.13-3.5,.7-7,.14-10.56,1.91,3.84-.26,8.37,2.11,12.49,7.34-6.73,9.22-15.94,14.67-24.91Zm-18.58,29.04c-7.64,1.85-15.07,3.97-22.77,4.41-5.42,.31-9.9,1.06-8.47,8.58q-.81-7.53-8.08-7.57c-3.99-.02-7.99,.19-11.96-.03-3.41-.19-4.76,1.27-4.71,4.46,.03,1.98,.25,4.01-.06,5.94-.85,5.29,2.19,6.03,6.51,6.54,8.7,1.03,16.5-2.18,24.41-4.61,10.19-3.13,18.18-9.72,25.13-17.72Zm-43.82-15.93c-3.72,0-6.55,.32-9.27-.08-3.86-.56-4.25,.69-3.59,4.18,.87,4.61-.75,10.63,1.68,13.77,2.89,3.73,9.31,.76,14.17,1.62,7.66,1.35,9,.04,8.79-7.44q-.36-12.56-11.77-12.05Zm-13.96,14.7c-.54-15.57-.62-15.37-12.61-17.06-5.34-.75-7.17-.49-6.2,5.88,1.96,12.88,1.49,12.84,14.14,15.08,3.72,.66,5.49,.07,4.67-3.9Zm-.85,23.41c.13-1.93,.29-3.3,.3-4.68,.16-12.37,.16-12.46-12.03-14.05-1.97-.26-5.88-1.95-5.71,1.71,.19,4.09-5,9.26,1.93,12.46,4.76,2.2,9.88,2.92,15.51,4.56Zm-30.87-35.93c.12,1.67,.25,3.05,.32,4.43,.25,4.81,4.06,8.8,8.63,7.88,4.32-.87,1.51-4.74,1.79-7.27,.2-1.76-.02-3.56-.1-5.34-.22-4.95-3.33-7.95-8.97-7.2-4.09,.55-.86,4.4-1.66,6.59-.13,.35-.02,.79-.02,.9Zm-16.43-14.43c3.02,14.05,7.63,21.3,14.01,22,1.78-11.31,.25-20.78-14.01-22Zm27,35.24c1.54-5.43-2.58-5.56-5.94-6.79-3.5-1.28-3.7,1.79-4.51,3.26-1.83,3.32,2.05,3.97,3.4,5.84,1.39,1.93,2.9,4.58,5.45,3.55,2.04-.83,1.26-3.87,1.6-5.86Z"/>
    <path class="cls-2" d="M11.71,106.94c.5-4.63,6.21-10.51,10.57-11.02,1.38-.16,2.49,.1,2.68,1.49,.16,1.14-.08,1.98-1.91,2.09-4.9,.29-7.13,3.61-7.99,8.08-.27,1.42-.74,3-2.53,2.48-1.35-.39-.89-1.97-.83-3.12Z"/>
    <path class="cls-2" d="M160.38,110.49c-2.45-.87-2.81-2.59-3.42-4.27-.98-2.69-2.45-5.07-5.88-4.9-1.44,.07-2.52-.52-2.4-1.88,.2-2.24,1.92-1.35,3.2-1.16,5.89,.86,9.33,5.63,8.5,12.22Z"/>
  </g>
</svg>